# xmcd
#
# Track frame offsets:
#	183
#	13360
#	28658
#	41620
#	59470
#	76110
#	93988
#	107573
#	122208
#	135603
#	154618
#	169008
#	180558
#	198358
#	209438
#	224425
#	238280
#	254083
#	266638
#	282288
#
# Disc length: 3918 seconds
#
# Revision: 2
# Processed by: cddbd v1.4PL0 Copyright (c) Steve Scherf et al.
# Submitted via: MusicWizard 6.0.1
#
DISCID=280f4c14
DTITLE=Various Artist - Country Love
DYEAR=1900
DGENRE=Other
TTITLE0=Dolly Parton - I Will Always Love You
TTITLE1=Don Williams - I Recall a Gypsy Woman
TTITLE2=Bobbie Gentry - I'll Never Fall in Love Again
TTITLE3=Less Greewood - The Wind Beneath My Wings
TTITLE4=Mary McGregor - Torn Between Two Lovers
TTITLE5=Waylon Jennings and Jessi Colter - Suspicious Minds
TTITLE6=Williw Nelson - Fire and Rain
TTITLE7=The Bellamy Brothers - If I Said You Had a Beautiful Body Would You Hold it Against Me
TTITLE8=Tanya Tucker and Glen Campbell - Dream Lover
TTITLE9=Naci Griffith - From a Distance
TTITLE10=Kenny Rogers - Daytime Friends
TTITLE11=Crystal Gale - Don't it Make My Brown Eyes Blue
TTITLE12=Bobby Goldsboro - Honey
TTITLE13=Charley Pride - The Most Beautiful Girl in the World
TTITLE14=Skeeter Davis - True Love Ways
TTITLE15=Glen Campbell - Wichita Lineman
TTITLE16=Gerorge Strait - I Cross My Heart
TTITLE17=Jim Reeves - I Love You Because
TTITLE18=The Judds - Why Not Me
TTITLE19=Patsy Cline - Sweet Dreams
EXTD=
EXTT0=
EXTT1=
EXTT2=
EXTT3=
EXTT4=
EXTT5=
EXTT6=
EXTT7=
EXTT8=
EXTT9=
EXTT10=
EXTT11=
EXTT12=
EXTT13=
EXTT14=
EXTT15=
EXTT16=
EXTT17=
EXTT18=
EXTT19=
PLAYORDER=
